<svg width="16" height="16" viewBox="0 0 16 16" fill="none" xmlns="http://www.w3.org/2000/svg">
<path d="M6.99773 11.4828L7.35544 11.125C7.80809 11.2229 8.30056 11.2184 8.80159 11.0917C9.92047 10.8135 10.8201 9.91389 11.0983 8.79502C11.225 8.29396 11.2296 7.80147 11.1317 7.3488L12.9269 5.55359C12.995 5.48545 13.1124 5.49133 13.1738 5.56931L13.1738 5.56932L13.1762 5.57238C13.3788 5.82559 13.5745 6.09705 13.757 6.38668C14.0133 6.79422 14.1642 7.37325 14.1717 7.97954C14.1792 8.58672 14.0422 9.1598 13.7901 9.56044L13.7895 9.5615C13.0454 10.7507 12.1314 11.6727 11.1307 12.2946C10.1495 12.8967 9.08625 13.2134 8.00001 13.2134C7.30315 13.2134 6.62415 13.0853 5.96691 12.8336C5.91938 12.815 5.88625 12.7759 5.87498 12.7179C5.8632 12.6574 5.88068 12.5998 5.92023 12.5603L6.99773 11.4828Z" fill="#5E6264" stroke="#5E6264"/>
<path d="M8.57344 6.71956L6.71956 8.57344C6.63867 8.39566 6.59338 8.20079 6.59338 8.00005C6.59338 7.22839 7.224 6.59338 8.00005 6.59338C8.20079 6.59338 8.39566 6.63867 8.57344 6.71956Z" fill="#5E6264" stroke="#5E6264"/>
<path d="M12.1667 3.83329L9.90671 6.09329C9.42004 5.59995 8.74671 5.30662 8.00004 5.30662C6.50671 5.30662 5.30671 6.51329 5.30671 7.99995C5.30671 8.74662 5.60671 9.41995 6.09337 9.90662L3.84004 12.1666H3.83337C3.09337 11.5666 2.41337 10.8 1.83337 9.89329C1.16671 8.84662 1.16671 7.14662 1.83337 6.09995C2.60671 4.88662 3.55337 3.93329 4.60671 3.27995C5.66004 2.63995 6.81337 2.28662 8.00004 2.28662C9.48671 2.28662 10.9267 2.83329 12.1667 3.83329Z" fill="#5E6264"/>
<path d="M9.90672 8.00005C9.90672 9.04672 9.05339 9.90672 8.00005 9.90672C7.96005 9.90672 7.92672 9.90672 7.88672 9.89339L9.89339 7.88672C9.90672 7.92672 9.90672 7.96005 9.90672 8.00005Z" fill="#5E6264"/>
<path d="M14.5133 1.48667C14.3133 1.28667 13.9867 1.28667 13.7867 1.48667L1.48667 13.7933C1.28667 13.9933 1.28667 14.32 1.48667 14.52C1.58667 14.6133 1.71334 14.6667 1.84667 14.6667C1.98 14.6667 2.10667 14.6133 2.20667 14.5133L14.5133 2.20667C14.72 2.00667 14.72 1.68667 14.5133 1.48667Z" fill="#5E6264"/>
</svg>
