<svg width="16" height="16" viewBox="0 0 16 16" fill="none" xmlns="http://www.w3.org/2000/svg">
<path d="M6.41189 3.16864L6.4119 3.16865L6.41421 3.16633C8.17804 1.3965 11.0612 1.39467 12.8401 3.16719C14.6111 4.93846 14.6112 7.828 12.8403 9.59936C11.6025 10.8308 9.83076 11.2091 8.27597 10.7228L7.98792 10.6328L7.77401 10.8457L6.48034 12.1332L5.30028 10.9532C4.91168 10.5646 4.2751 10.5646 3.8865 10.9532C3.49791 11.3418 3.49791 11.9783 3.8865 12.3669L5.06295 13.5434L4.63317 13.9732L4.63313 13.9731L4.62808 13.9783C4.58555 14.0221 4.49446 14.0815 4.36694 14.124C4.23975 14.1664 4.12873 14.1745 4.06555 14.1653L4.06155 14.1647L2.60884 13.9648C2.4971 13.9493 2.36131 13.8822 2.24192 13.7623C2.12367 13.6435 2.05352 13.5048 2.03479 13.3875L1.83539 11.9385L1.8354 11.9385L1.83482 11.9346C1.82599 11.874 1.83421 11.7637 1.87773 11.6332C1.92051 11.5048 1.97983 11.4097 2.02361 11.3636L5.15361 8.2336L5.36648 8.02073L5.27795 7.733C4.79649 6.16826 5.17085 4.3977 6.41189 3.16864ZM6.35984 12.2532C6.36012 12.2529 6.36039 12.2526 6.36067 12.2523L6.35984 12.2532ZM7.50006 6.33338C7.50006 7.52952 8.47058 8.50005 9.66672 8.50005C10.8629 8.50005 11.8334 7.52952 11.8334 6.33338C11.8334 5.13724 10.8629 4.16671 9.66672 4.16671C8.47058 4.16671 7.50006 5.13724 7.50006 6.33338Z" fill="#5E6264" stroke="#5E6264"/>
</svg>
