<svg width="16" height="16" viewBox="0 0 16 16" fill="none" xmlns="http://www.w3.org/2000/svg">
<path d="M11.9587 6.78405L11.9588 6.78407L11.962 6.78143C12.3871 6.43602 12.4551 5.80593 12.1135 5.37806C11.7698 4.9323 11.1304 4.8746 10.7067 5.21706L8.62133 6.88269L8.6204 6.88344C8.47174 7.00276 8.2468 7.07837 7.99671 7.07837C7.74662 7.07837 7.52168 7.00276 7.37301 6.88344L7.37208 6.8827L5.28678 5.21712C4.84848 4.86272 4.22344 4.95526 3.88532 5.37141L3.88525 5.37135L3.87936 5.37889C3.54653 5.8049 3.61137 6.43473 4.03808 6.78143L4.03807 6.78144L4.04133 6.78405L6.12616 8.44925C6.66115 8.88455 7.34335 9.08671 8.00004 9.08671C8.65957 9.08671 9.33343 8.88301 9.87248 8.4504C9.87269 8.45023 9.8729 8.45007 9.87311 8.4499L11.9587 6.78405ZM4.66671 2.83337H11.3334C12.2567 2.83337 12.9498 3.06428 13.4098 3.49144C13.8631 3.91236 14.1667 4.59534 14.1667 5.66671V10.3334C14.1667 11.4047 13.8631 12.0877 13.4098 12.5086C12.9498 12.9358 12.2567 13.1667 11.3334 13.1667H4.66671C3.74335 13.1667 3.05028 12.9358 2.59027 12.5086C2.13696 12.0877 1.83337 11.4047 1.83337 10.3334V5.66671C1.83337 4.59534 2.13696 3.91236 2.59027 3.49144C3.05028 3.06428 3.74335 2.83337 4.66671 2.83337Z" fill="#5E6264" stroke="#5E6264"/>
</svg>
