<svg width="16" height="14" viewBox="0 0 16 14" fill="none" xmlns="http://www.w3.org/2000/svg">
<path d="M13.5447 1.91316C12.5249 1.44524 11.4313 1.1005 10.2879 0.90305C10.2671 0.899239 10.2463 0.908762 10.2356 0.927809C10.0949 1.17795 9.93915 1.50428 9.83006 1.76078C8.60027 1.57667 7.37679 1.57667 6.17221 1.76078C6.0631 1.49858 5.90166 1.17795 5.76038 0.927809C5.74966 0.909398 5.72886 0.899875 5.70803 0.90305C4.56527 1.09987 3.47171 1.44461 2.45129 1.91316C2.44246 1.91697 2.43488 1.92333 2.42986 1.93158C0.355594 5.03048 -0.212633 8.05322 0.0661201 11.0385C0.0673814 11.0531 0.0755799 11.0671 0.086932 11.0759C1.45547 12.081 2.78114 12.6911 4.08219 13.0955C4.10301 13.1019 4.12507 13.0943 4.13832 13.0771C4.44608 12.6568 4.72043 12.2137 4.95565 11.7476C4.96953 11.7204 4.95628 11.688 4.92791 11.6772C4.49275 11.5121 4.0784 11.3108 3.67982 11.0823C3.64829 11.0639 3.64577 11.0188 3.67477 10.9972C3.75865 10.9343 3.84255 10.869 3.92264 10.8029C3.93713 10.7909 3.95732 10.7883 3.97435 10.7959C6.59286 11.9915 9.4277 11.9915 12.0153 10.7959C12.0323 10.7877 12.0525 10.7902 12.0677 10.8023C12.1478 10.8683 12.2316 10.9343 12.3161 10.9972C12.3451 11.0188 12.3433 11.0639 12.3117 11.0823C11.9131 11.3153 11.4988 11.5121 11.063 11.6765C11.0346 11.6873 11.022 11.7204 11.0359 11.7476C11.2762 12.213 11.5505 12.6562 11.8526 13.0765C11.8652 13.0943 11.8879 13.1019 11.9087 13.0955C13.2161 12.6911 14.5417 12.081 15.9103 11.0759C15.9223 11.0671 15.9298 11.0537 15.9311 11.0391C16.2647 7.58782 15.3723 4.58987 13.5655 1.93221C13.5611 1.92333 13.5535 1.91697 13.5447 1.91316ZM5.34668 9.22077C4.55833 9.22077 3.90876 8.49701 3.90876 7.60815C3.90876 6.71929 4.54574 5.99553 5.34668 5.99553C6.15392 5.99553 6.79721 6.72565 6.78459 7.60815C6.78459 8.49701 6.14761 9.22077 5.34668 9.22077ZM10.6632 9.22077C9.87484 9.22077 9.22526 8.49701 9.22526 7.60815C9.22526 6.71929 9.86222 5.99553 10.6632 5.99553C11.4704 5.99553 12.1137 6.72565 12.1011 7.60815C12.1011 8.49701 11.4704 9.22077 10.6632 9.22077Z" fill="#5E6264"/>
</svg>
