<svg width="16" height="16" viewBox="0 0 16 16" fill="none" xmlns="http://www.w3.org/2000/svg">
<path fill-rule="evenodd" clip-rule="evenodd" d="M8.00662 0.133301C3.57917 0.133301 0 3.73885 0 8.19941C0 11.765 2.29329 14.7831 5.4747 15.8514C5.87246 15.9317 6.01816 15.6778 6.01816 15.4643C6.01816 15.2773 6.00505 14.6363 6.00505 13.9685C3.7778 14.4493 3.31399 13.0069 3.31399 13.0069C2.95606 12.0721 2.42572 11.8318 2.42572 11.8318C1.69674 11.3377 2.47882 11.3377 2.47882 11.3377C3.28744 11.3911 3.71175 12.1657 3.71175 12.1657C4.42745 13.3942 5.58074 13.0471 6.04471 12.8334C6.11092 12.3125 6.32315 11.952 6.5485 11.7517C4.77211 11.5647 2.90313 10.8703 2.90313 7.77199C2.90313 6.8906 3.22107 6.16949 3.72486 5.60866C3.64538 5.40839 3.36693 4.58026 3.80451 3.47188C3.80451 3.47188 4.48055 3.25817 6.00488 4.29984C6.6575 4.12328 7.33054 4.03346 8.00662 4.03271C8.68266 4.03271 9.37181 4.12629 10.0082 4.29984C11.5327 3.25817 12.2087 3.47188 12.2087 3.47188C12.6463 4.58026 12.3677 5.40839 12.2882 5.60866C12.8053 6.16949 13.1101 6.8906 13.1101 7.77199C13.1101 10.8703 11.2411 11.5513 9.45146 11.7517C9.74318 12.0054 9.99492 12.4861 9.99492 13.2473C9.99492 14.329 9.98181 15.1971 9.98181 15.4641C9.98181 15.6778 10.1277 15.9317 10.5253 15.8515C13.7067 14.783 16 11.765 16 8.19941C16.0131 3.73885 12.4208 0.133301 8.00662 0.133301Z" fill="#5E6264"/>
</svg>
