<svg width="16" height="16" viewBox="0 0 16 16" fill="none" xmlns="http://www.w3.org/2000/svg">
<path d="M8.00464 1.44221C10.1421 1.44221 10.3953 1.45159 11.2359 1.48909C12.0171 1.52346 12.439 1.65471 12.7203 1.76409C13.0921 1.90784 13.3609 2.08284 13.639 2.36096C13.9203 2.64221 14.0921 2.90784 14.2359 3.27971C14.3453 3.56096 14.4765 3.98596 14.5109 4.76409C14.5484 5.60784 14.5578 5.86096 14.5578 7.99534C14.5578 10.1328 14.5484 10.386 14.5109 11.2266C14.4765 12.0078 14.3453 12.4297 14.2359 12.711C14.0921 13.0828 13.9171 13.3516 13.639 13.6297C13.3578 13.911 13.0921 14.0828 12.7203 14.2266C12.439 14.336 12.014 14.4672 11.2359 14.5016C10.3921 14.5391 10.139 14.5485 8.00464 14.5485C5.86714 14.5485 5.61401 14.5391 4.77339 14.5016C3.99214 14.4672 3.57026 14.336 3.28901 14.2266C2.91714 14.0828 2.64839 13.9078 2.37026 13.6297C2.08901 13.3485 1.91714 13.0828 1.77339 12.711C1.66401 12.4297 1.53276 12.0047 1.49839 11.2266C1.46089 10.3828 1.45151 10.1297 1.45151 7.99534C1.45151 5.85784 1.46089 5.60471 1.49839 4.76409C1.53276 3.98284 1.66401 3.56096 1.77339 3.27971C1.91714 2.90784 2.09214 2.63909 2.37026 2.36096C2.65151 2.07971 2.91714 1.90784 3.28901 1.76409C3.57026 1.65471 3.99526 1.52346 4.77339 1.48909C5.61401 1.45159 5.86714 1.44221 8.00464 1.44221ZM8.00464 0.00158691C5.83276 0.00158691 5.56089 0.0109619 4.70776 0.0484619C3.85776 0.0859619 3.27339 0.223462 2.76714 0.420337C2.23901 0.626587 1.79214 0.898462 1.34839 1.34534C0.901514 1.78909 0.629639 2.23596 0.423389 2.76096C0.226514 3.27034 0.0890137 3.85159 0.0515137 4.70159C0.0140137 5.55784 0.00463867 5.82971 0.00463867 8.00159C0.00463867 10.1735 0.0140137 10.4453 0.0515137 11.2985C0.0890137 12.1485 0.226514 12.7328 0.423389 13.2391C0.629639 13.7672 0.901514 14.2141 1.34839 14.6578C1.79214 15.1016 2.23901 15.3766 2.76401 15.5797C3.27339 15.7766 3.85464 15.9141 4.70464 15.9516C5.55776 15.9891 5.82964 15.9985 8.00151 15.9985C10.1734 15.9985 10.4453 15.9891 11.2984 15.9516C12.1484 15.9141 12.7328 15.7766 13.239 15.5797C13.764 15.3766 14.2109 15.1016 14.6546 14.6578C15.0984 14.2141 15.3734 13.7672 15.5765 13.2422C15.7734 12.7328 15.9109 12.1516 15.9484 11.3016C15.9859 10.4485 15.9953 10.1766 15.9953 8.00471C15.9953 5.83284 15.9859 5.56096 15.9484 4.70784C15.9109 3.85784 15.7734 3.27346 15.5765 2.76721C15.3796 2.23596 15.1078 1.78909 14.6609 1.34534C14.2171 0.901587 13.7703 0.626587 13.2453 0.423462C12.7359 0.226587 12.1546 0.0890869 11.3046 0.0515869C10.4484 0.0109619 10.1765 0.00158691 8.00464 0.00158691Z" fill="#5E6264"/>
<path d="M7.99995 3.89145C5.73253 3.89145 3.89298 5.73172 3.89298 8.00002C3.89298 10.2683 5.73253 12.1086 7.99995 12.1086C10.2674 12.1086 12.1069 10.2683 12.1069 8.00002C12.1069 5.73172 10.2674 3.89145 7.99995 3.89145ZM7.99995 10.6651C6.52894 10.6651 5.33589 9.47161 5.33589 8.00002C5.33589 6.52844 6.52894 5.33492 7.99995 5.33492C9.47096 5.33492 10.664 6.52844 10.664 8.00002C10.664 9.47161 9.47096 10.6651 7.99995 10.6651Z" fill="#5E6264"/>
<path d="M13.2281 3.72896C13.2281 4.2601 12.7971 4.68814 12.2693 4.68814C11.7384 4.68814 11.3105 4.25698 11.3105 3.72896C11.3105 3.19781 11.7415 2.76977 12.2693 2.76977C12.7971 2.76977 13.2281 3.20093 13.2281 3.72896Z" fill="#5E6264"/>
</svg>
