<svg width="131" height="20" viewBox="0 0 131 20" fill="none" xmlns="http://www.w3.org/2000/svg">
<path d="M0 0H14.6409V3.32865H3.24895V5.5618H12.0773V8.89045H3.24895V11.1096H12.0773V14.4382H3.24895V16.6713H14.6409V20H0V0Z" fill="#92999C"/>
<path d="M17.0614 0H20.3104V11.1236H32.5248V14.4663H20.3104V16.6713H32.5248V20H17.0614V0Z" fill="#92999C"/>
<path d="M34.9453 20V0H38.1943V20H34.9453Z" fill="#92999C"/>
<path d="M40.6286 0H60.4376L52.2946 20H48.7578L40.6286 0ZM45.3992 3.32865L46.304 5.53371H54.7622L55.667 3.32865H45.3992ZM47.6474 8.8764L50.5262 15.9551L53.405 8.8764H47.6474Z" fill="#92999C"/>
<path d="M64.4346 0H67.9715L76.1007 20H56.2917L64.4346 0ZM66.2031 4.04494L63.3242 11.1236H69.0819L66.2031 4.04494ZM61.9671 14.4663L61.0623 16.6713H71.3301L70.439 14.4663H61.9671Z" fill="#92999C"/>
<path d="M89.406 11.6713H87.3359L89.406 14.0309V11.6713ZM80.6735 14.7191C81.8616 15.9363 83.2965 16.5871 84.9781 16.6713C85.7275 16.6994 86.4403 16.6152 87.1166 16.4185L79.2478 7.42978C78.928 8.21629 78.768 9.07303 78.768 10C78.768 11.8446 79.4032 13.4176 80.6735 14.7191ZM81.263 4.73315L84.416 8.3427H92.6549V16.5871L92.1751 17.0787C90.2742 19.0262 87.9757 20 85.2796 20C82.5836 20 80.2806 19.0262 78.3705 17.0787C76.4695 15.1217 75.5191 12.7622 75.5191 10C75.5191 7.23783 76.4695 4.88296 78.3705 2.93539C80.2806 0.987828 82.5836 0.0140449 85.2796 0.0140449C87.9665 0.0140449 90.265 0.987828 92.1751 2.93539L89.8858 5.2809C88.6063 3.98876 87.0709 3.3427 85.2796 3.3427C83.7534 3.3427 82.4145 3.80618 81.263 4.73315Z" fill="#92999C"/>
<path d="M101.848 0H105.384L113.514 20H93.7046L101.848 0ZM103.616 4.04494L100.737 11.1236H106.495L103.616 4.04494ZM99.38 14.4663L98.4752 16.6713H108.743L107.852 14.4663H99.38Z" fill="#92999C"/>
<path d="M124.763 10.7725C125.494 10.6414 126.129 10.2949 126.668 9.73315C127.381 9.00281 127.737 8.12266 127.737 7.0927C127.737 6.04401 127.381 5.15449 126.668 4.42416C126.129 3.87172 125.494 3.52996 124.763 3.39888V10.7725ZM119.197 3.32865V10.8287H121.514V3.32865H119.197ZM128.957 2.07865C130.319 3.45506 131 5.1264 131 7.0927C131 9.04026 130.319 10.7069 128.957 12.0927C128.482 12.589 127.966 12.9963 127.408 13.3146L131 20H127.285L124.159 14.1573C124.095 14.1573 124.068 14.1573 124.077 14.1573H119.197V20H115.948V0H124.077C125.987 0 127.614 0.692884 128.957 2.07865Z" fill="#92999C"/>
</svg>
