<svg width="131" height="20" viewBox="0 0 131 20" fill="none" xmlns="http://www.w3.org/2000/svg">
<path d="M0 0H14.6317V3.32865H3.24691V5.5618H12.0698V8.89045H3.24691V11.1096H12.0698V14.4382H3.24691V16.6713H14.6317V20H0V0Z" fill="#92999C"/>
<path d="M17.0507 0H20.2976V11.1236H32.5044V14.4663H20.2976V16.6713H32.5044V20H17.0507V0Z" fill="#92999C"/>
<path d="M34.9234 20V0H38.1703V20H34.9234Z" fill="#92999C"/>
<path d="M46.9873 0H60.3997L52.2618 20H48.7272L40.6031 0H44.0144L50.4945 15.9551L55.632 3.32865H48.3436L46.9873 0Z" fill="#92999C"/>
<path d="M64.3805 0H67.9151L76.053 20H72.6416L71.2853 16.6713H61.0377L59.6677 20H56.2564L64.3805 0ZM66.1478 4.04494L64.723 7.55618H67.5726L66.1478 4.04494ZM63.3667 10.8989L62.3803 13.3287H69.929L68.9289 10.8989H63.3667Z" fill="#92999C"/>
<path d="M80.6229 14.7191C81.8102 15.9363 83.2442 16.5871 84.9247 16.6713C85.6737 16.6994 86.3861 16.6152 87.0619 16.4185L79.1981 7.42978C78.8784 8.21629 78.7186 9.07303 78.7186 10C78.7186 11.8446 79.3534 13.4176 80.6229 14.7191ZM89.3499 14.0309V10H92.5968V16.5871L92.1173 17.0787C90.2175 19.0262 87.9205 20 85.2261 20C82.5318 20 80.2302 19.0262 78.3213 17.0787C76.4216 15.1217 75.4717 12.7622 75.4717 10C75.4717 7.23783 76.4216 4.88296 78.3213 2.93539C80.2302 0.987828 82.5318 0.0140449 85.2261 0.0140449C87.9113 0.0140449 90.2084 0.987828 92.1173 2.93539L89.8294 5.2809C88.5507 3.98876 87.0163 3.3427 85.2261 3.3427C83.7009 3.3427 82.3628 3.80618 81.212 4.73315L89.3499 14.0309Z" fill="#92999C"/>
<path d="M101.77 0H105.305L113.442 20H110.031L108.675 16.6713H98.4271L97.0571 20H93.6458L101.77 0ZM103.537 4.04494L102.112 7.55618H104.962L103.537 4.04494ZM100.756 10.8989L99.7697 13.3287H107.318L106.318 10.8989H100.756Z" fill="#92999C"/>
<path d="M127.657 7.0927C127.657 6.04401 127.301 5.15449 126.589 4.42416C125.876 3.69382 125.013 3.32865 123.999 3.32865H122.081L125.835 10.3371C126.1 10.1779 126.351 9.97659 126.589 9.73315C127.301 9.00281 127.657 8.12266 127.657 7.0927ZM119.122 10.8287H122.383L119.122 4.74719V10.8287ZM119.122 14.1573V20H115.875V0H123.999C125.908 0 127.534 0.692884 128.876 2.07865C130.237 3.45506 130.918 5.1264 130.918 7.0927C130.918 9.04026 130.237 10.7069 128.876 12.0927C128.42 12.5702 127.927 12.9635 127.397 13.2725L131 20H127.287L124.164 14.1573C124.109 14.1573 124.054 14.1573 123.999 14.1573H119.122Z" fill="#92999C"/>
</svg>
