<svg width="1440" height="1024" viewBox="0 0 1440 1024" fill="none" xmlns="http://www.w3.org/2000/svg">
<path d="M360 170.667H540M360 170.667V341.333M360 170.667V0M360 170.667H180M540 170.667V341.333M540 170.667V0M540 170.667H720M540 341.333H360M540 341.333V512M540 341.333H720M360 341.333V512M360 341.333H180M360 853.333H540M360 853.333V1024M360 853.333V682.667M360 853.333H180M540 853.333V1024M540 853.333V682.667M540 853.333H720M540 512H360M540 512V682.667M540 512H720M360 512V682.667M360 512H180M540 682.667H360M540 682.667H720M360 682.667H180M720 170.667V341.333M720 170.667V0M720 170.667H900M720 341.333V512M720 341.333H900M720 853.333V1024M720 853.333V682.667M720 853.333H900M720 512V682.667M720 512H900M720 682.667H900M900 170.667V341.333M900 170.667V0M900 170.667H1080M900 341.333V512M900 341.333H1080M900 853.333V1024M900 853.333V682.667M900 853.333H1080M900 512V682.667M900 512H1080M900 682.667H1080M180 170.667V341.333M180 170.667V0M180 170.667H0M180 341.333H0M180 341.333V512M180 853.333V1024M180 853.333H0M180 853.333V682.667M1080 170.667H1260M1080 170.667V341.333M1080 170.667V0M1260 170.667V341.333M1260 170.667H1440M1260 170.667V0M1260 341.333H1080M1260 341.333H1440M1260 341.333V512M1080 341.333V512M1080 853.333H1260M1080 853.333V1024M1080 853.333V682.667M1260 853.333V1024M1260 853.333H1440M1260 853.333V682.667M180 512H0M180 512V682.667M1260 512H1080M1260 512H1440M1260 512V682.667M1080 512V682.667M180 682.667H0M1260 682.667H1080M1260 682.667H1440" stroke="#4F3A1F"/>
</svg>
