<svg width="16" height="20" viewBox="0 0 16 20" fill="none" xmlns="http://www.w3.org/2000/svg">
<path d="M8.5032 0.134412C8.53291 0.147531 8.56262 0.16065 8.59323 0.174166C8.65678 0.20228 8.72021 0.230676 8.78353 0.25933C8.95232 0.335578 9.1221 0.409386 9.29175 0.483533C9.34278 0.505932 9.34278 0.505932 9.39485 0.528783C10.9751 1.22068 12.6474 1.75124 14.3268 2.11023C14.3702 2.11953 14.4137 2.12883 14.4584 2.13841C14.6727 2.18399 14.8871 2.22846 15.1018 2.27143C15.1802 2.28763 15.2586 2.30383 15.337 2.32003C15.3728 2.32686 15.4086 2.33369 15.4455 2.34073C15.6535 2.38433 15.7915 2.43647 15.9448 2.59958C15.9939 2.75334 15.9949 2.8677 15.9951 3.02971C15.9952 3.05939 15.9953 3.08908 15.9954 3.11966C15.9957 3.21935 15.9956 3.31904 15.9956 3.41873C15.9957 3.49017 15.9959 3.56162 15.9961 3.63307C15.9964 3.82764 15.9966 4.02221 15.9966 4.21678C15.9966 4.33883 15.9967 4.46088 15.9968 4.58293C15.9972 5.01024 15.9974 5.43754 15.9974 5.86485C15.9974 6.26039 15.9978 6.65593 15.9985 7.05146C15.9991 7.39265 15.9993 7.73383 15.9993 8.07502C15.9993 8.27802 15.9994 8.48102 15.9999 8.68403C16.0045 10.7741 15.8621 12.8455 14.88 14.7198C14.8546 14.7682 14.8546 14.7682 14.8287 14.8177C14.3582 15.7038 13.7705 16.4819 13.1053 17.2178C13.0595 17.2687 13.0595 17.2687 13.0126 17.3205C12.7797 17.5708 12.5249 17.7888 12.2624 18.0043C12.2238 18.0365 12.1853 18.0688 12.1456 18.102C11.1122 18.9416 9.93072 19.5329 8.67148 19.8981C8.639 19.9079 8.60652 19.9176 8.57305 19.9277C8.10578 20.0556 7.67339 20.0016 7.21571 19.8605C7.16828 19.8462 7.12085 19.8319 7.07198 19.8172C5.70995 19.3917 4.44473 18.6762 3.38912 17.6805C3.34971 17.6444 3.31031 17.6083 3.26971 17.5711C2.24797 16.6294 1.48382 15.4918 0.9046 14.2109C0.869771 14.1343 0.869771 14.1343 0.834238 14.0561C0.0763245 12.302 0.00278271 10.4585 0.00389289 8.56799C0.00394109 8.40492 0.00372257 8.24185 0.00351175 8.07878C0.00302452 7.69457 0.00299715 7.31036 0.00326804 6.92615C0.00353809 6.53071 0.00298328 6.13526 0.00204474 5.73982C0.00126398 5.39819 0.000997035 5.05657 0.00114165 4.71494C0.00122192 4.51175 0.00110606 4.30857 0.000488369 4.10538C-6.84855e-05 3.91525 1.5413e-05 3.72512 0.000595331 3.53499C0.000700383 3.46534 0.000578718 3.39569 0.000212839 3.32603C-0.000250692 3.23095 0.000107186 3.13591 0.000670475 3.04084C0.000663033 2.98769 0.000655803 2.93454 0.000648135 2.87978C0.0194008 2.72027 0.0583109 2.63491 0.150372 2.50706C0.310973 2.39542 0.463826 2.36931 0.64984 2.33232C0.726906 2.31634 0.803966 2.30033 0.88102 2.28429C0.921854 2.27587 0.962688 2.26746 1.00476 2.25879C3.14128 1.81545 5.24394 1.17112 7.2431 0.26199C7.28172 0.244473 7.32035 0.226956 7.36015 0.208908C7.42872 0.177416 7.49701 0.145289 7.56494 0.112321C7.60954 0.0915916 7.60954 0.0915916 7.65504 0.0704431C7.67975 0.0584719 7.70445 0.0465007 7.7299 0.0341667C8.01624 -0.0410063 8.23743 0.0147265 8.5032 0.134412ZM7.67757 0.935114C7.63114 0.955449 7.5847 0.975783 7.53685 0.996734C7.48669 1.01904 7.43654 1.04134 7.38486 1.06432C7.27592 1.11155 7.16694 1.15864 7.05783 1.20545C7.02969 1.21754 7.00154 1.22963 6.97255 1.24208C5.5925 1.83219 4.17229 2.28912 2.72639 2.66608C2.68188 2.67771 2.63736 2.68934 2.5915 2.70133C2.09102 2.83145 1.59018 2.9523 1.08317 3.0517C0.913337 3.07135 0.913337 3.07135 0.771501 3.15471C0.767021 3.24295 0.765699 3.33137 0.765569 3.41974C0.76538 3.47737 0.765191 3.53499 0.764996 3.59436C0.765011 3.65885 0.765032 3.72333 0.765056 3.78782C0.764924 3.8553 0.764773 3.92278 0.764605 3.99026C0.764211 4.17441 0.764109 4.35856 0.764081 4.54271C0.764049 4.65818 0.763954 4.77364 0.763837 4.8891C0.763425 5.29321 0.763245 5.69731 0.76328 6.10142C0.763307 6.47567 0.762843 6.84992 0.762138 7.22417C0.761552 7.54677 0.76132 7.86937 0.761348 8.19197C0.761359 8.38401 0.76124 8.57605 0.760764 8.76809C0.747855 10.3195 0.747855 10.3195 0.954513 11.8517C0.96397 11.8967 0.973428 11.9417 0.983173 11.9882C1.35199 13.6665 2.11718 15.1844 3.25602 16.4314C3.2806 16.4586 3.30517 16.4857 3.3305 16.5136C3.9167 17.1569 4.55231 17.7081 5.29687 18.1431C5.32907 18.1622 5.36127 18.1814 5.39444 18.2012C6.01527 18.568 6.65626 18.8474 7.33772 19.0683C7.38204 19.0828 7.42635 19.0972 7.47201 19.1122C7.99769 19.2682 8.4161 19.1627 8.92382 18.9815C8.97577 18.9632 9.02771 18.9448 9.08123 18.9259C10.3432 18.4663 11.4341 17.7654 12.3955 16.8015C12.4355 16.7617 12.4355 16.7617 12.4763 16.721C12.8563 16.3409 13.2009 15.9554 13.5046 15.5062C13.5224 15.4805 13.5401 15.4548 13.5584 15.4283C14.3674 14.2502 14.8779 12.8993 15.1129 11.4758C15.1202 11.4323 15.1274 11.3887 15.1349 11.3439C15.2314 10.719 15.2416 10.0884 15.24 9.45677C15.24 9.38739 15.24 9.318 15.24 9.24862C15.24 9.06286 15.2397 8.87711 15.2394 8.69135C15.2392 8.49625 15.2391 8.30116 15.2391 8.10606C15.2389 7.73779 15.2386 7.36951 15.2381 7.00123C15.2376 6.58147 15.2374 6.1617 15.2372 5.74194C15.2367 4.87953 15.2359 4.01712 15.2349 3.15471C15.0378 3.08464 14.844 3.03046 14.6401 2.98521C14.5751 2.9706 14.5102 2.95597 14.4452 2.94133C14.4112 2.93372 14.3773 2.92611 14.3423 2.91827C12.3208 2.46306 10.2998 1.8608 8.41475 0.961474C8.3808 0.94556 8.34685 0.929645 8.31187 0.913249C8.26862 0.892385 8.26862 0.892385 8.2245 0.871099C8.0207 0.80313 7.86926 0.849654 7.67757 0.935114Z" fill="#8C6E30"/>
<path d="M9.69746 4.78249C10.2032 5.30987 10.5367 5.94368 10.549 6.69645C10.5477 7.35612 10.4075 7.81098 10.0884 8.38212C10.0738 8.41266 10.0592 8.44319 10.0441 8.47464C10.077 8.48651 10.1098 8.49838 10.1437 8.5106C11.0106 8.83918 11.914 9.30946 12.3262 10.2181C12.5464 10.7599 12.5812 11.2597 12.5812 11.8441C12.5813 11.9439 12.5821 12.0438 12.5829 12.1437C12.5861 12.928 12.5861 12.928 12.365 13.2742C12.3447 13.3073 12.3244 13.3405 12.3035 13.3746C12.0868 13.6185 11.7785 13.7141 11.4832 13.8148C11.4426 13.8287 11.402 13.8426 11.3601 13.8569C10.9126 14.0058 10.4613 14.1207 9.9997 14.2109C9.94198 14.2224 9.94198 14.2224 9.88309 14.2341C8.06768 14.5755 5.49233 14.5348 3.86328 13.5257C3.64253 13.3534 3.50801 13.1178 3.4537 12.8371C3.4196 12.5795 3.42523 12.3209 3.42526 12.0614C3.42516 11.9628 3.42436 11.8641 3.42352 11.7655C3.41998 10.8957 3.58901 10.143 4.1683 9.48948C4.64313 9.01774 5.33795 8.67639 5.96236 8.47464C5.93829 8.42992 5.91421 8.3852 5.8894 8.33912C5.85732 8.27829 5.82526 8.21745 5.79322 8.1566C5.7774 8.12739 5.76159 8.09817 5.7453 8.06806C5.53811 7.67167 5.4499 7.29174 5.45492 6.84108C5.45523 6.79878 5.45553 6.75649 5.45584 6.71291C5.46742 6.2008 5.60205 5.75848 5.87363 5.32894C5.89491 5.29483 5.91618 5.26072 5.9381 5.22558C6.86097 3.87093 8.50086 3.92624 9.69746 4.78249ZM6.61677 5.62096C6.25179 6.0895 6.17811 6.59462 6.22856 7.17936C6.3362 7.70717 6.65655 8.11781 7.07152 8.42838C7.49743 8.67348 7.94275 8.77257 8.42019 8.65246C8.96565 8.468 9.35893 8.16234 9.62259 7.6275C9.82518 7.17861 9.85965 6.63986 9.70855 6.16452C9.48019 5.60613 9.06326 5.23643 8.53561 5.00512C7.82275 4.75418 7.10209 5.075 6.61677 5.62096ZM6.30898 9.18879C6.27354 9.20135 6.23811 9.21391 6.2016 9.22685C5.45091 9.50207 4.68197 9.87737 4.31838 10.6567C4.16848 11.0415 4.17818 11.4466 4.17705 11.8549C4.17662 11.95 4.17524 12.0451 4.17385 12.1402C4.17362 12.2006 4.17339 12.2611 4.17315 12.3233C4.17274 12.3782 4.17232 12.433 4.1719 12.4896C4.18951 12.655 4.22266 12.739 4.32081 12.8694C4.56915 13.0405 4.8872 13.114 5.17209 13.1932C5.21394 13.205 5.25579 13.2167 5.2989 13.2288C6.83936 13.6495 8.52827 13.7381 10.0884 13.3782C10.1357 13.3673 10.183 13.3564 10.2317 13.3452C11.075 13.2035 11.075 13.2035 11.7744 12.7769C11.8485 12.545 11.827 12.3028 11.8269 12.0601C11.827 11.9659 11.8278 11.8717 11.8287 11.7775C11.8296 11.1406 11.754 10.5627 11.3231 10.0771C10.8106 9.5976 9.97649 9.16864 9.28984 9.07603C9.10364 9.1201 8.96251 9.20246 8.80181 9.30733C8.11991 9.57067 7.44497 9.42612 6.80532 9.12229C6.6198 9.05781 6.48691 9.12531 6.30898 9.18879Z" fill="#8C6E30"/>
</svg>
